<?xml version="1.0" standalone="no"?>
<!DOCTYPE svg PUBLIC "-//W3C//DTD SVG 20010904//EN"
 "http://www.w3.org/TR/2001/REC-SVG-20010904/DTD/svg10.dtd">
<svg version="1.0" xmlns="http://www.w3.org/2000/svg"
 width="920.000000pt" height="920.000000pt" viewBox="0 0 920.000000 920.000000"
 preserveAspectRatio="xMidYMid meet">
<metadata>
Created by potrace 1.11, written by Peter Selinger 2001-2013
</metadata>
<g transform="translate(0.000000,920.000000) scale(0.100000,-0.100000)"
fill="#000000" stroke="none">
<path d="M3755 8013 c-552 -65 -968 -233 -1395 -563 -114 -88 -413 -384 -408
-404 2 -8 149 -150 328 -316 l324 -300 81 79 c297 291 575 455 890 523 118 25
384 35 525 19 384 -45 649 -217 746 -486 59 -161 54 -335 -11 -474 -86 -180
-219 -316 -620 -631 -379 -297 -558 -475 -690 -685 -131 -210 -196 -481 -171
-718 l8 -67 519 0 519 0 0 109 c0 214 59 381 198 564 109 143 234 257 552 502
291 225 342 267 464 385 315 305 435 597 407 991 -26 356 -128 619 -337 869
-276 328 -752 541 -1343 600 -95 9 -516 12 -586 3z"/>
<path d="M6951 3993 c-339 -885 -1461 -3832 -1461 -3838 0 -3 125 -5 279 -5
l278 0 88 248 c48 136 115 324 150 417 34 94 75 207 91 253 l29 82 873 -2 874
-3 176 -497 177 -498 273 0 c184 0 272 3 272 11 0 5 -176 472 -391 1037 -214
565 -546 1438 -737 1939 l-347 913 -301 0 -301 0 -22 -57z m632 -1323 c168
-454 326 -879 351 -945 25 -65 46 -123 46 -127 0 -4 -318 -8 -706 -8 -668 0
-706 1 -702 18 4 13 643 1748 690 1871 4 13 10 22 12 20 2 -2 141 -375 309
-829z"/>
<path d="M3745 3276 c-262 -51 -452 -216 -531 -461 -36 -109 -44 -296 -20
-411 52 -238 214 -423 436 -498 285 -95 609 -21 790 182 63 70 136 214 155
307 22 103 19 272 -5 374 -57 238 -230 420 -465 489 -101 29 -260 37 -360 18z"/>
</g>
</svg>
