<svg version="1.0" xmlns="http://www.w3.org/2000/svg" width="920pt" height="920pt" viewBox="0 0 920 920"><g transform="translate(0.000000,920.000000) scale(0.100000,-0.100000)" fill="#000" stroke="none"><path d="M3760 8010c-655-68-1205-338-1679-825l-134-137 39-38c22-20 169-157 327-304l288-266 112 104c318 297 582 443 912 502 136 24 410 24 550 0 392-70 639-269 701-566 23-110 15-264-19-353-68-176-234-353-601-642-374-293-518-428-654-607-178-236-266-515-246-785l7-93h516 516l1 118c2 239 81 423 277 645 85 95 226 216 487 417 274 211 367 290 488 412 178 181 286 357 339 555 25 90 27 114 27 293 1 212-16 329-70 495-189 583-726 959-1515 1060-145 19-546 28-669 15z"/><path d="M3694 3260c-267-70-451-273-5e2-551-57-326 85-630 356-762 213-104 456-104 670 0 128 62 228 161 289 284 61 126 76 191 75 344 0 153-15 220-75 345-33 68-58 101-123 165-93 92-184 143-310 175-105 27-281 27-382 0z"/><path d="M6470 3029v-177l58-6c129-14 576-36 862-42 314-7 715 4 1125 31 121 8 232 15 248 15h27v181 181l-57-6c-621-67-1571-72-2145-12l-118 12v-177z"/><path d="M6276 1418c-78-351-93-562-51-723 86-332 396-539 930-621 102-16 179-19 520-19 233 0 461 6 545 13 318 27 553 60 755 105l1e2 22v182c0 1e2-2 184-5 187-3 3-35-4-70-15-149-46-460-97-770-125-235-22-839-26-975-6-317 46-544 160-643 324-43 73-65 179-57 278 9 105 32 230 60 332 14 48 25 91 25 96 0 5-64 14-142 21-79 7-157 15-174 18l-32 5-16-74z"/></g></svg>